<svg id="Capa_1" enable-background="new 0 0 512 512" height="512" viewBox="0 0 512 512" width="512" xmlns="http://www.w3.org/2000/svg"><g><g><g><g><g><path d="m98.506 9.507h315v494.988h-315z" fill="#d3e0ef"/></g><g><path d="m120.591 482.409v-472.902h-22.085v494.988h315v-22.086z" fill="#9bb6f1"/></g><g><path d="m413.506 46.082h29.976v60.047h-29.976z" fill="#e08ea2"/></g><g><path d="m413.506 83.606h29.976v22.522h-29.976z" fill="#d15573"/></g><g><path d="m413.506 136.082h29.976v60.047h-29.976z" fill="#6de89a"/></g><g><path d="m413.506 173.606h29.976v22.522h-29.976z" fill="#2ce079"/></g><g><path d="m413.506 226.082h29.976v60.047h-29.976z" fill="#e08ea2"/></g><g><path d="m413.506 263.606h29.976v22.522h-29.976z" fill="#d15573"/></g><g><path d="m413.506 316.082h29.976v60.047h-29.976z" fill="#6de89a"/></g><g><path d="m413.506 353.606h29.976v22.522h-29.976z" fill="#2ce079"/></g><g><path d="m413.506 406.082h29.976v60.047h-29.976z" fill="#e08ea2"/></g><g><path d="m413.506 443.606h29.976v22.522h-29.976z" fill="#d15573"/></g><g><path d="m151.017 31.159h15v15h-15z" fill="#fff"/></g><g><path d="m68.518 53.543h59.945v30.064h-59.945z" fill="#fbf2e2"/></g><g><path d="m68.518 53.543h22.879v30.064h-22.879z" fill="#f7e0ba"/></g><g><path d="m68.518 128.505h59.945v30.064h-59.945z" fill="#fbf2e2"/></g><g><path d="m68.518 128.505h22.879v30.064h-22.879z" fill="#f7e0ba"/></g><g><path d="m68.518 203.468h59.945v30.064h-59.945z" fill="#fbf2e2"/></g><g><path d="m68.518 203.468h22.879v30.064h-22.879z" fill="#f7e0ba"/></g><g><path d="m68.518 278.431h59.945v30.064h-59.945z" fill="#fbf2e2"/></g><g><path d="m68.518 278.431h22.879v30.064h-22.879z" fill="#f7e0ba"/></g><g><path d="m68.518 353.394h59.945v30.064h-59.945z" fill="#fbf2e2"/></g><g><path d="m68.518 353.394h22.879v30.064h-22.879z" fill="#f7e0ba"/></g><g><path d="m68.518 428.356h59.945v30.064h-59.945z" fill="#fbf2e2"/></g><g><path d="m68.518 428.356h22.879v30.064h-22.879z" fill="#f7e0ba"/></g><g><circle cx="271.012" cy="256" fill="#9bb6f1" r="97.5"/></g><g><path d="m285.973 338.539c-53.848 0-97.5-43.652-97.5-97.5 0-23.113 8.047-44.342 21.486-61.053-22.221 17.871-36.447 45.279-36.447 76.014 0 53.848 43.652 97.5 97.5 97.5 30.735 0 58.144-14.226 76.014-36.447-16.71 13.438-37.94 21.486-61.053 21.486z" fill="#6990eb"/></g><g><path d="m271.012 263.596c-29.012 0-52.532 23.519-52.532 52.532 0 9.48 2.511 18.374 6.905 26.053 0 0 15.627 11.319 45.627 11.319s45.627-11.319 45.627-11.319c4.394-7.678 6.905-16.572 6.905-26.053 0-29.013-23.519-52.532-52.532-52.532z" fill="#ffc277"/></g><g><path d="m322.336 304.93c.744 5.356-3.089 10.273-5.697 14.832-8.919 7.776-47.026 16.375-73.666 7.617-10.09-19.834-4.488-47.063 11.903-61.246-30.775 8.822-46.308 48.625-29.491 76.049 19.582 14.792 72.02 14.605 91.253 0 .694-1.22 8.203-14.629 5.698-37.252z" fill="#ff905b"/></g><g><circle cx="271.012" cy="233.532" fill="#fbf2e2" r="30"/></g><g><path d="m181.017 31.159h15v15h-15z" fill="#fff"/></g></g></g></g><g><path d="m346.004 497h15.01v15h-15.01z"/><path d="m450.986 113.626v-75.049h-29.977v-38.577h-330.007v46.038h-29.989v45.065h29.989v29.937h-29.989v45.065h29.989v29.862h-29.989v45.064h29.989v29.937h-29.989v45.064h29.989v29.862h-29.989v45.065h29.989v29.937h-29.989v45.065h29.989v46.039h240.011v-15h-225.01v-31.038h29.958v-45.065h-29.958v-29.937h29.958v-45.065h-29.958v-29.862h29.958v-45.064h-29.958v-29.937h29.958v-45.064h-29.958v-29.862h29.958v-45.066h-29.958v-29.937h29.958v-45.065h-29.958v-31.038h300.006v482h-29.995v15h44.995v-38.367h29.977v-75.048h-29.977v-14.953h29.977v-75.048h-29.977v-14.954h29.977v-75.048h-29.977v-14.953h29.977v-75.048h-29.977v-14.953h29.977zm-330.026 337.336h-44.946v-15.064h44.946zm0-75.002h-44.946v-15.064h44.946zm0-74.927h-44.946v-15.064h44.946zm0-75.002h-44.946v-15.064h44.946zm0-74.927h-44.946v-15.064h44.946zm0-75.001h-44.946v-15.065h44.946zm315.026-22.525v45.048h-14.977v-45.048zm0 360.007v45.048h-14.977v-45.048zm0-90.002v45.048h-14.977v-45.048zm0-90.001v45.048h-14.977v-45.048zm0-90.002v45.048h-14.977v-45.048z"/><path d="m271.012 361.002c57.899 0 105.002-47.104 105.002-105.002s-47.104-105.002-105.002-105.002c-33.419 0-64.08 15.366-84.125 42.156l12.01 8.987c17.185-22.969 43.47-36.142 72.115-36.142 49.627 0 90.002 40.375 90.002 90.002 0 26.794-11.774 50.887-30.415 67.389 3.428-26.188-11.79-51.649-34.676-61.858 7.717-6.874 12.59-16.876 12.59-27.999 0-20.678-16.823-37.501-37.501-37.501s-37.501 16.823-37.501 37.501c0 11.123 4.873 21.126 12.59 27.999-22.884 10.207-38.104 35.674-34.675 61.859-18.642-16.502-30.416-40.595-30.416-67.39 0-14.612 3.39-28.547 10.074-41.419l-13.313-6.913c-7.694 14.817-11.762 31.53-11.762 48.332.001 57.897 47.104 105.001 105.003 105.001zm0-149.971c12.406 0 22.5 10.093 22.5 22.5s-10.094 22.5-22.5 22.5c-12.407 0-22.5-10.093-22.5-22.5s10.093-22.5 22.5-22.5zm-45.032 105.098c0-24.831 20.202-45.033 45.032-45.033 24.832 0 45.033 20.202 45.033 45.033 0 7.117-1.699 14.124-4.901 20.413-12.09 6.049-25.719 9.46-40.132 9.46s-28.042-3.411-40.132-9.459c-3.201-6.289-4.9-13.296-4.9-20.414z"/></g></g></svg>