<svg height="512" viewBox="0 0 512 512" width="512" xmlns="http://www.w3.org/2000/svg"><g id="flat"><path d="m410 488h-308a78.087 78.087 0 0 1 -78-78v-308a78.087 78.087 0 0 1 78-78h308a78.087 78.087 0 0 1 78 78v308a78.087 78.087 0 0 1 -78 78zm-308-448a62.07 62.07 0 0 0 -62 62v308a62.07 62.07 0 0 0 62 62h308a62.07 62.07 0 0 0 62-62v-308a62.07 62.07 0 0 0 -62-62z" fill="#dcdbd6"/><path d="m448 240h40v32h-40z" fill="#5b89b9"/><path d="m240 448h32v40h-32z" fill="#5b89b9"/><path d="m24 240h40v32h-40z" fill="#5b89b9"/><path d="m240 24h32v40h-32z" fill="#5b89b9"/><path d="m418.246 139.009a199.815 199.815 0 1 0 0 233.982 200.945 200.945 0 0 0 0-233.982zm-87.767 146.216a79.979 79.979 0 1 1 0-58.45 79.6 79.6 0 0 1 0 58.45z" fill="#eae9e4"/><path d="m418.246 139.009-87.766 87.766a80.1 80.1 0 0 0 -45.255-45.255l87.766-87.766a202.13 202.13 0 0 1 45.255 45.255z" fill="#ea2b2d"/><path d="m226.775 330.48-87.766 87.766a202.13 202.13 0 0 1 -45.255-45.255l87.766-87.766a80.1 80.1 0 0 0 45.255 45.255z" fill="#ea2b2d"/><path d="m199.431 199.431a79.6 79.6 0 0 0 -17.911 27.344l-87.766-87.766a202.13 202.13 0 0 1 45.255-45.255l87.766 87.766a79.617 79.617 0 0 0 -27.344 17.911z" fill="#ea2b2d"/><path d="m397.421 397.421a200.856 200.856 0 0 1 -24.43 20.825l-87.766-87.766a80.1 80.1 0 0 0 45.255-45.255l87.766 87.766a200.856 200.856 0 0 1 -20.825 24.43z" fill="#ea2b2d"/><g fill="#dcdbd6"><path d="m233.766 431.021a8.142 8.142 0 0 1 -1.062-.071 175.586 175.586 0 0 1 -18.606-3.5 8 8 0 1 1 3.8-15.541 159.482 159.482 0 0 0 16.906 3.18 8 8 0 0 1 -1.042 15.932z"/><path d="m273.845 431.524a8 8 0 0 1 -.833-15.956 160.076 160.076 0 0 0 36.327-8.2 8 8 0 0 1 5.322 15.088 176.06 176.06 0 0 1 -39.963 9.021 8.21 8.21 0 0 1 -.853.047z"/><path d="m318.986 108.76a7.979 7.979 0 0 1 -3.071-.616 145.489 145.489 0 0 0 -15.515-5.444 8 8 0 0 1 4.438-15.373 161.9 161.9 0 0 1 17.22 6.043 8 8 0 0 1 -3.077 15.388z"/><path d="m206.507 103.892a8 8 0 0 1 -2.348-15.649 176.784 176.784 0 0 1 41.53-7.471 178.7 178.7 0 0 1 25.2.3 8 8 0 0 1 -1.332 15.945 161.652 161.652 0 0 0 -60.692 6.515 7.981 7.981 0 0 1 -2.358.36z"/></g></g></svg>